<svg xmlns="http://www.w3.org/2000/svg" viewBox="0 0 64 64">
  <rect width="64" height="64" rx="14" fill="#fff7ed"/>
  <path d="M18 28h28v14c0 6-5 11-11 11h-6c-6 0-11-5-11-11V28z" fill="#c2410c"/>
  <path d="M22 28v-4c0-2 2-4 4-4h12c2 0 4 2 4 4v4" fill="none" stroke="#292524" stroke-width="4" stroke-linecap="round"/>
  <path d="M46 32h5c3 0 5 2 5 5s-2 5-5 5h-5" fill="none" stroke="#c2410c" stroke-width="4" stroke-linecap="round"/>
  <path d="M25 16c-2-3 2-5 0-8" fill="none" stroke="#6b8f71" stroke-width="3" stroke-linecap="round"/>
  <path d="M33 16c-2-3 2-5 0-8" fill="none" stroke="#6b8f71" stroke-width="3" stroke-linecap="round"/>
  <path d="M41 16c-2-3 2-5 0-8" fill="none" stroke="#6b8f71" stroke-width="3" stroke-linecap="round"/>
</svg>
